<svg width="136" height="28" viewBox="0 0 136 28" fill="none" xmlns="http://www.w3.org/2000/svg">
<g clip-path="url(#clip0_38_286)">
<path d="M37.8611 7.52L36.6806 11.7725H54.4583C54.875 10.4225 55.3611 8.9375 55.7778 7.52C55.3611 7.52 41.1944 7.52 37.8611 7.52ZM2.79167 11.3L2.58333 11.7725H20.3611C20.7778 10.4225 21.2639 8.9375 21.6806 7.52H4.18056C3.69444 8.735 3.27778 10.0175 2.79167 11.3ZM52.3056 18.725L53.6944 14.405H35.8472L34.5278 18.725H52.3056ZM74.3889 7.52H71.1944L69.0417 14.3375H65.0139C64.4583 13.7975 63.5556 12.65 62.8611 11.7725C64.7361 11.57 67.0972 11.5025 68.7639 9.6125C70.5 7.8575 71.2639 5.765 70.7083 3.2675C70.2917 1.9175 68.8333 0.8375 67.4444 0.5H37.5833L28.9722 11.165L28.2083 12.11C27.5833 8.3975 26.8194 4.2125 26.3333 0.5H6.26389C6.05556 0.5 6.05556 0.5 6.05556 0.7025L4.80556 4.82L4.66667 4.955H21.9583V5.225L24.1111 18.185V18.725H28.4861L29.4583 17.375L37.6528 7.1825L39.3889 4.955H65.2917C65.7083 5.09 66.0556 5.6975 65.9861 6.1025C65.7083 7.1825 65.2917 7.52 64.5972 7.52H58.2778C57.8611 8.87 57.375 10.4225 57.0278 11.7725C58.6944 14.0675 60.2917 16.295 61.9583 18.6575H72.4444L74.4583 12.3125L74.6667 11.7725H80.5694C82.5833 11.7725 84.875 11.6375 85.9167 9.95C85.7083 11.3675 84.6667 12.92 84.8055 14.4725C84.8055 15.9575 85.7083 17.375 87.0972 18.185C89.9444 19.67 93.4861 18.725 95.8472 16.97C99.5278 14.2025 99.875 8.87 101.403 4.955H110.014C110.5 5.09 110.917 5.495 110.569 6.44C110.083 7.3175 109.875 7.385 109.181 7.52H102.931C102.514 8.87 102.028 10.4225 101.542 11.7725L106.333 18.725H129.806L131.194 14.405H109.181L107.444 11.84C109.319 11.7725 112.167 11.2325 113.694 9.14C115.222 7.385 115.778 5.5625 115.083 3.2C114.528 1.7825 113.069 0.77 111.611 0.5H97.7917C96.5417 4.3475 95.3611 8.6 94.1111 12.515C93.9028 13.2575 93.0694 14 92.3055 14.3375C91.6111 14.54 90.6389 14.675 90.0139 14.135C89.5972 13.865 89.3889 13.325 89.5278 12.785L93.2083 0.905L93.3472 0.5H88.625C88.3472 1.3775 88.3472 1.58 88.0694 2.1875C87.1667 1.04 85.6389 0.635 84.3194 0.5H73.3472L71.9583 4.955H82.9305C83.4861 5.1575 83.5555 5.8325 83.4861 6.305C83.2778 6.9125 82.7917 7.52 82.0972 7.52H74.3194M117.306 11.7725H132.097L133.347 7.52H115.708L114.389 11.7725H117.306ZM135.5 0.5H117.792C117.375 1.7825 116.958 3.6725 116.472 4.955H134.181C134.597 3.605 135.153 1.9175 135.5 0.5ZM18.2083 18.725L19.5278 14.405H1.88889L0.5 18.5225V18.725H18.2083ZM77.0972 23.7875H78.5556V27.4325H79.3889V23.7875H80.8472V23.1125H77.0278V23.7875H77.0972ZM122.861 26.7575C121.958 26.7575 121.264 26.0825 121.264 25.205C121.264 24.3275 121.958 23.6525 122.861 23.6525C123.764 23.6525 124.458 24.3275 124.458 25.205C124.458 26.0825 123.764 26.7575 122.861 26.7575ZM122.861 23.045C121.472 23.045 120.431 23.99 120.431 25.2725C120.431 26.555 121.472 27.5 122.861 27.5C124.25 27.5 125.292 26.555 125.292 25.2725C125.292 23.99 124.25 23.045 122.861 23.045ZM55.3611 27.4325H56.1944V23.045H55.3611V27.4325ZM59.5972 25.475H58.625V23.72H59.5972C60.3611 23.72 60.7083 24.0575 60.7083 24.5975C60.7083 25.1375 60.3611 25.475 59.5972 25.475ZM61.5417 24.5975C61.5417 23.6525 60.7778 23.045 59.5972 23.045H57.7222V27.4325H58.5556V26.15H59.5972C59.5972 26.15 59.7361 26.15 59.8056 26.15L60.7083 27.4325H61.6111L60.5694 26.015C61.1944 25.8125 61.5417 25.2725 61.5417 24.665M70.0833 26.42L68.9722 23.1125H68.2083L67.0278 26.42L65.9167 23.1125H65.0833L66.5417 27.5H67.4444L68.5555 24.26L69.6667 27.5H70.5694L72.0278 23.1125H71.2639L70.0833 26.42ZM73.8333 25.8125L74.6667 23.9225L75.5 25.8125H73.8333ZM74.25 23.045L72.2361 27.4325H73.0694L73.4861 26.42H75.7083L76.125 27.4325H77.0278L75.0139 23.045H74.1805H74.25ZM100.639 26.7575C99.7361 26.7575 99.0417 26.0825 99.0417 25.205C99.0417 24.3275 99.7361 23.6525 100.639 23.6525C101.542 23.6525 102.236 24.3275 102.236 25.205C102.236 26.0825 101.542 26.7575 100.639 26.7575ZM100.639 23.045C99.25 23.045 98.2083 23.99 98.2083 25.2725C98.2083 26.555 99.25 27.5 100.639 27.5C102.028 27.5 103.069 26.555 103.069 25.2725C103.069 23.99 102.028 23.045 100.639 23.045ZM113.417 23.7875H114.875V27.4325H115.708V23.7875H117.167V23.1125H113.347V23.7875H113.417ZM105.222 23.045H104.389V27.4325H107.583V26.7575H105.222V23.045ZM82.7917 25.5425H84.9444V24.8675H82.7917V23.72H85.2222V23.045H81.9583V27.4325H85.2917V26.7575H82.7917V25.5425ZM118.278 27.4325H119.111V23.045H118.278V27.4325ZM88.4861 25.475H87.5139V23.72H88.4861C89.25 23.72 89.5972 24.0575 89.5972 24.5975C89.5972 25.1375 89.25 25.475 88.4861 25.475ZM90.4305 24.5975C90.4305 23.6525 89.6667 23.045 88.4861 23.045H86.6111V27.4325H87.4444V26.15H88.4861C88.4861 26.15 88.625 26.15 88.6944 26.15L89.5972 27.4325H90.5L89.4583 26.015C90.0833 25.8125 90.4305 25.2725 90.4305 24.665M94.5972 24.26C94.5972 23.9225 94.875 23.6525 95.5694 23.6525C96.2639 23.6525 96.4028 23.7875 96.8194 23.99L97.0972 23.3825C96.6806 23.1125 96.125 22.9775 95.5694 22.9775C94.3194 22.9775 93.7639 23.585 93.7639 24.26C93.7639 25.88 96.4028 25.2725 96.4028 26.2175C96.4028 27.1625 96.125 26.7575 95.4305 26.7575C94.7361 26.7575 94.3194 26.555 93.9722 26.285L93.6944 26.8925C94.0417 27.23 94.7361 27.4325 95.5 27.4325C96.75 27.4325 97.3055 26.825 97.3055 26.15C97.3055 24.53 94.6667 25.1375 94.6667 24.1925M18.3472 26.7575C17.4444 26.7575 16.75 26.0825 16.75 25.205C16.75 24.3275 17.4444 23.6525 18.3472 23.6525C19.25 23.6525 19.9444 24.3275 19.9444 25.205C19.9444 26.0825 19.25 26.7575 18.3472 26.7575ZM18.3472 23.045C16.9583 23.045 15.9167 23.99 15.9167 25.2725C15.9167 26.555 16.9583 27.5 18.3472 27.5C19.7361 27.5 20.7778 26.555 20.7778 25.2725C20.7778 23.99 19.7361 23.045 18.3472 23.045ZM132.861 24.26C132.861 23.9225 133.139 23.6525 133.833 23.6525C134.528 23.6525 134.667 23.7875 135.083 23.99L135.361 23.3825C134.944 23.1125 134.389 22.9775 133.833 22.9775C132.583 22.9775 132.028 23.585 132.028 24.26C132.028 25.88 134.667 25.2725 134.667 26.2175C134.667 27.1625 134.389 26.7575 133.694 26.7575C133 26.7575 132.583 26.555 132.236 26.285L131.958 26.8925C132.306 27.23 133 27.4325 133.764 27.4325C135.014 27.4325 135.569 26.825 135.569 26.15C135.569 24.53 132.931 25.1375 132.931 24.1925M26.2639 23.045L24.5278 25.9475L22.7222 23.045H22.0278V27.4325H22.7917V24.5975L24.25 26.96H24.5972L26.0556 24.5975V27.5H26.8194V23.1125H26.125L26.2639 23.045ZM111.611 25.475C111.611 26.3525 111.194 26.7575 110.5 26.7575C109.806 26.7575 109.389 26.3525 109.389 25.475V23.045H108.556V25.475C108.556 26.7575 109.319 27.4325 110.5 27.4325C111.681 27.4325 112.444 26.7575 112.444 25.475V23.045H111.611V25.475ZM0.5 27.4325L3.20833 25.2725L0.5 23.045V27.4325ZM12.9306 25.475H11.9583V23.72H12.9306C13.6944 23.72 14.0417 24.0575 14.0417 24.5975C14.0417 25.1375 13.6944 25.475 12.9306 25.475ZM14.875 24.5975C14.875 23.6525 14.1111 23.045 12.9306 23.045H11.0556V27.4325H11.8889V26.15H12.9306C12.9306 26.15 13.0694 26.15 13.1389 26.15L14.0417 27.4325H14.9444L13.9028 26.015C14.5278 25.8125 14.875 25.2725 14.875 24.665M6.61111 27.4325H7.44444V25.745H9.59722V25.07H7.44444V23.72H9.875V23.045H6.61111V27.4325ZM43.7639 26.015L41.2639 23.045H40.5694V27.4325H41.4028V24.4625L43.9028 27.4325H44.5972V23.045H43.7639V26.015ZM51.0556 25.8125L51.8889 23.9225L52.7222 25.8125H51.0556ZM51.4722 23.045L49.4583 27.4325H50.2917L50.7083 26.42H52.9306L53.3472 27.4325H54.25L52.2361 23.045H51.4028H51.4722ZM32.7222 25.475H31.75V23.72H32.7222C33.4861 23.72 33.8333 24.0575 33.8333 24.5975C33.8333 25.1375 33.4861 25.475 32.7222 25.475ZM32.7222 23.045H30.8472V27.4325H31.6806V26.15H32.7222C33.9028 26.15 34.6667 25.5425 34.6667 24.5975C34.6667 23.6525 33.9028 23.045 32.7222 23.045ZM129.806 26.015L127.306 23.045H126.611V27.4325H127.444V24.4625L129.944 27.4325H130.639V23.045H129.806V26.015ZM36.75 25.5425H38.9028V24.8675H36.75V23.72H39.1806V23.045H35.9167V27.4325H39.25V26.7575H36.75V25.5425ZM49.4583 23.045H45.6389V23.72H47.0972V27.365H47.9306V23.72H49.3889V23.045H49.4583Z" fill="#0C3471"/>
</g>
<defs>
<clipPath id="clip0_38_286">
<rect width="135" height="27" fill="white" transform="translate(0.5 0.5)"/>
</clipPath>
</defs>
</svg>
